<mxfile host="app.diagrams.net" modified="2022-12-18T17:27:42.663Z" agent="5.0 (X11; Linux x86_64) AppleWebKit/537.36 (KHTML, like Gecko) Chrome/108.0.0.0 Safari/537.36" etag="fMEEjuiEvUQS9gqA16f3" version="20.7.4" type="github">
  <diagram id="sW-k5IwQaTGZ5rN8S6sj" name="Page-1">
    <mxGraphModel dx="2049" dy="904" grid="1" gridSize="10" guides="1" tooltips="1" connect="1" arrows="1" fold="1" page="1" pageScale="1" pageWidth="1169" pageHeight="1654" math="0" shadow="0">
      <root>
        <mxCell id="0" />
        <mxCell id="1" parent="0" />
        <mxCell id="n_x6KbK1YoN0Yti5vFHE-8" style="edgeStyle=orthogonalEdgeStyle;rounded=0;orthogonalLoop=1;jettySize=auto;html=1;exitX=0.5;exitY=1;exitDx=0;exitDy=0;entryX=0.5;entryY=0;entryDx=0;entryDy=0;" parent="1" source="n_x6KbK1YoN0Yti5vFHE-1" target="n_x6KbK1YoN0Yti5vFHE-2" edge="1">
          <mxGeometry relative="1" as="geometry" />
        </mxCell>
        <mxCell id="n_x6KbK1YoN0Yti5vFHE-1" value="SignUp Account" style="rounded=0;whiteSpace=wrap;html=1;" parent="1" vertex="1">
          <mxGeometry x="290" y="10" width="120" height="80" as="geometry" />
        </mxCell>
        <mxCell id="n_x6KbK1YoN0Yti5vFHE-12" style="edgeStyle=orthogonalEdgeStyle;rounded=0;orthogonalLoop=1;jettySize=auto;html=1;exitX=0;exitY=0.5;exitDx=0;exitDy=0;entryX=0.358;entryY=0;entryDx=0;entryDy=0;entryPerimeter=0;" parent="1" source="n_x6KbK1YoN0Yti5vFHE-2" target="n_x6KbK1YoN0Yti5vFHE-9" edge="1">
          <mxGeometry relative="1" as="geometry">
            <mxPoint x="120" y="200" as="targetPoint" />
          </mxGeometry>
        </mxCell>
        <mxCell id="n_x6KbK1YoN0Yti5vFHE-14" style="edgeStyle=orthogonalEdgeStyle;rounded=0;orthogonalLoop=1;jettySize=auto;html=1;exitX=0.5;exitY=1;exitDx=0;exitDy=0;entryX=0.5;entryY=0;entryDx=0;entryDy=0;" parent="1" source="n_x6KbK1YoN0Yti5vFHE-2" target="n_x6KbK1YoN0Yti5vFHE-10" edge="1">
          <mxGeometry relative="1" as="geometry" />
        </mxCell>
        <mxCell id="n_x6KbK1YoN0Yti5vFHE-15" style="edgeStyle=orthogonalEdgeStyle;rounded=0;orthogonalLoop=1;jettySize=auto;html=1;exitX=1;exitY=0.5;exitDx=0;exitDy=0;entryX=0.675;entryY=0.017;entryDx=0;entryDy=0;entryPerimeter=0;" parent="1" source="n_x6KbK1YoN0Yti5vFHE-2" target="n_x6KbK1YoN0Yti5vFHE-11" edge="1">
          <mxGeometry relative="1" as="geometry" />
        </mxCell>
        <mxCell id="n_x6KbK1YoN0Yti5vFHE-2" value="account Type&lt;br&gt;" style="rhombus;whiteSpace=wrap;html=1;" parent="1" vertex="1">
          <mxGeometry x="287.5" y="130" width="125" height="80" as="geometry" />
        </mxCell>
        <mxCell id="n_x6KbK1YoN0Yti5vFHE-18" style="edgeStyle=orthogonalEdgeStyle;rounded=0;orthogonalLoop=1;jettySize=auto;html=1;entryX=0;entryY=0.75;entryDx=0;entryDy=0;" parent="1" source="n_x6KbK1YoN0Yti5vFHE-9" target="n_x6KbK1YoN0Yti5vFHE-17" edge="1">
          <mxGeometry relative="1" as="geometry" />
        </mxCell>
        <mxCell id="n_x6KbK1YoN0Yti5vFHE-9" value="Shhipping" style="rounded=0;whiteSpace=wrap;html=1;" parent="1" vertex="1">
          <mxGeometry x="120" y="190" width="120" height="60" as="geometry" />
        </mxCell>
        <mxCell id="n_x6KbK1YoN0Yti5vFHE-19" style="edgeStyle=orthogonalEdgeStyle;rounded=0;orthogonalLoop=1;jettySize=auto;html=1;exitX=0.5;exitY=1;exitDx=0;exitDy=0;entryX=0.5;entryY=0;entryDx=0;entryDy=0;" parent="1" source="n_x6KbK1YoN0Yti5vFHE-10" target="n_x6KbK1YoN0Yti5vFHE-17" edge="1">
          <mxGeometry relative="1" as="geometry" />
        </mxCell>
        <mxCell id="cfl4rptSdVp8EchHqUEe-3" style="edgeStyle=orthogonalEdgeStyle;rounded=0;orthogonalLoop=1;jettySize=auto;html=1;" parent="1" source="n_x6KbK1YoN0Yti5vFHE-10" target="cfl4rptSdVp8EchHqUEe-1" edge="1">
          <mxGeometry relative="1" as="geometry" />
        </mxCell>
        <mxCell id="n_x6KbK1YoN0Yti5vFHE-10" value="Virtual Mailbox" style="rounded=0;whiteSpace=wrap;html=1;" parent="1" vertex="1">
          <mxGeometry x="290" y="240" width="120" height="60" as="geometry" />
        </mxCell>
        <mxCell id="n_x6KbK1YoN0Yti5vFHE-20" style="edgeStyle=orthogonalEdgeStyle;rounded=0;orthogonalLoop=1;jettySize=auto;html=1;exitX=0.5;exitY=1;exitDx=0;exitDy=0;entryX=1;entryY=0.5;entryDx=0;entryDy=0;" parent="1" source="n_x6KbK1YoN0Yti5vFHE-11" target="n_x6KbK1YoN0Yti5vFHE-17" edge="1">
          <mxGeometry relative="1" as="geometry" />
        </mxCell>
        <mxCell id="n_x6KbK1YoN0Yti5vFHE-11" value="Both" style="rounded=0;whiteSpace=wrap;html=1;" parent="1" vertex="1">
          <mxGeometry x="470" y="190" width="120" height="60" as="geometry" />
        </mxCell>
        <mxCell id="I_9H3etlu-zK3Efqb3r3-34" style="edgeStyle=orthogonalEdgeStyle;rounded=0;orthogonalLoop=1;jettySize=auto;html=1;exitX=0.5;exitY=1;exitDx=0;exitDy=0;" edge="1" parent="1" source="n_x6KbK1YoN0Yti5vFHE-17">
          <mxGeometry relative="1" as="geometry">
            <mxPoint x="250" y="460" as="targetPoint" />
          </mxGeometry>
        </mxCell>
        <mxCell id="n_x6KbK1YoN0Yti5vFHE-17" value="Account Details" style="rounded=0;whiteSpace=wrap;html=1;" parent="1" vertex="1">
          <mxGeometry x="200" y="340" width="120" height="60" as="geometry" />
        </mxCell>
        <mxCell id="cfl4rptSdVp8EchHqUEe-7" style="edgeStyle=orthogonalEdgeStyle;rounded=0;orthogonalLoop=1;jettySize=auto;html=1;exitX=0.5;exitY=1;exitDx=0;exitDy=0;entryX=0.5;entryY=0;entryDx=0;entryDy=0;" parent="1" source="cfl4rptSdVp8EchHqUEe-1" target="cfl4rptSdVp8EchHqUEe-6" edge="1">
          <mxGeometry relative="1" as="geometry" />
        </mxCell>
        <mxCell id="cfl4rptSdVp8EchHqUEe-1" value="Post Office Form" style="rounded=0;whiteSpace=wrap;html=1;" parent="1" vertex="1">
          <mxGeometry x="520" y="380" width="120" height="60" as="geometry" />
        </mxCell>
        <mxCell id="cfl4rptSdVp8EchHqUEe-9" style="edgeStyle=orthogonalEdgeStyle;rounded=0;orthogonalLoop=1;jettySize=auto;html=1;exitX=0.5;exitY=1;exitDx=0;exitDy=0;entryX=0.5;entryY=0;entryDx=0;entryDy=0;" parent="1" source="cfl4rptSdVp8EchHqUEe-6" target="cfl4rptSdVp8EchHqUEe-8" edge="1">
          <mxGeometry relative="1" as="geometry" />
        </mxCell>
        <mxCell id="cfl4rptSdVp8EchHqUEe-6" value="Mail Box Application&lt;br&gt;(Documents)" style="rounded=0;whiteSpace=wrap;html=1;" parent="1" vertex="1">
          <mxGeometry x="520" y="510" width="120" height="60" as="geometry" />
        </mxCell>
        <mxCell id="cfl4rptSdVp8EchHqUEe-11" style="edgeStyle=orthogonalEdgeStyle;rounded=0;orthogonalLoop=1;jettySize=auto;html=1;entryX=0.5;entryY=0;entryDx=0;entryDy=0;" parent="1" source="cfl4rptSdVp8EchHqUEe-8" target="cfl4rptSdVp8EchHqUEe-10" edge="1">
          <mxGeometry relative="1" as="geometry" />
        </mxCell>
        <mxCell id="cfl4rptSdVp8EchHqUEe-13" style="edgeStyle=orthogonalEdgeStyle;rounded=0;orthogonalLoop=1;jettySize=auto;html=1;entryX=0.5;entryY=0;entryDx=0;entryDy=0;" parent="1" source="cfl4rptSdVp8EchHqUEe-8" target="cfl4rptSdVp8EchHqUEe-17" edge="1">
          <mxGeometry relative="1" as="geometry">
            <mxPoint x="560" y="750" as="targetPoint" />
          </mxGeometry>
        </mxCell>
        <mxCell id="cfl4rptSdVp8EchHqUEe-21" style="edgeStyle=orthogonalEdgeStyle;rounded=0;orthogonalLoop=1;jettySize=auto;html=1;exitX=0.5;exitY=1;exitDx=0;exitDy=0;entryX=0.5;entryY=0;entryDx=0;entryDy=0;" parent="1" source="cfl4rptSdVp8EchHqUEe-8" target="cfl4rptSdVp8EchHqUEe-17" edge="1">
          <mxGeometry relative="1" as="geometry" />
        </mxCell>
        <mxCell id="cfl4rptSdVp8EchHqUEe-8" value="If any issue" style="rhombus;whiteSpace=wrap;html=1;" parent="1" vertex="1">
          <mxGeometry x="545" y="590" width="80" height="80" as="geometry" />
        </mxCell>
        <mxCell id="cfl4rptSdVp8EchHqUEe-18" style="edgeStyle=orthogonalEdgeStyle;rounded=0;orthogonalLoop=1;jettySize=auto;html=1;exitX=0.5;exitY=1;exitDx=0;exitDy=0;" parent="1" source="cfl4rptSdVp8EchHqUEe-10" target="cfl4rptSdVp8EchHqUEe-17" edge="1">
          <mxGeometry relative="1" as="geometry" />
        </mxCell>
        <mxCell id="cfl4rptSdVp8EchHqUEe-10" value="Schedule Meeting" style="rounded=0;whiteSpace=wrap;html=1;" parent="1" vertex="1">
          <mxGeometry x="630" y="660" width="120" height="60" as="geometry" />
        </mxCell>
        <mxCell id="cfl4rptSdVp8EchHqUEe-20" style="edgeStyle=orthogonalEdgeStyle;rounded=0;orthogonalLoop=1;jettySize=auto;html=1;entryX=0;entryY=0.5;entryDx=0;entryDy=0;" parent="1" source="cfl4rptSdVp8EchHqUEe-17" target="cfl4rptSdVp8EchHqUEe-8" edge="1">
          <mxGeometry relative="1" as="geometry" />
        </mxCell>
        <mxCell id="cfl4rptSdVp8EchHqUEe-23" style="edgeStyle=orthogonalEdgeStyle;rounded=0;orthogonalLoop=1;jettySize=auto;html=1;entryX=0.5;entryY=0;entryDx=0;entryDy=0;" parent="1" source="cfl4rptSdVp8EchHqUEe-17" target="cfl4rptSdVp8EchHqUEe-22" edge="1">
          <mxGeometry relative="1" as="geometry" />
        </mxCell>
        <mxCell id="cfl4rptSdVp8EchHqUEe-17" value="waiting for approval" style="rhombus;whiteSpace=wrap;html=1;" parent="1" vertex="1">
          <mxGeometry x="670" y="810" width="120" height="60" as="geometry" />
        </mxCell>
        <mxCell id="cfl4rptSdVp8EchHqUEe-25" style="edgeStyle=orthogonalEdgeStyle;rounded=0;orthogonalLoop=1;jettySize=auto;html=1;exitX=0.5;exitY=1;exitDx=0;exitDy=0;entryX=0.5;entryY=0;entryDx=0;entryDy=0;" parent="1" source="cfl4rptSdVp8EchHqUEe-22" target="cfl4rptSdVp8EchHqUEe-24" edge="1">
          <mxGeometry relative="1" as="geometry" />
        </mxCell>
        <mxCell id="cfl4rptSdVp8EchHqUEe-22" value="select plan" style="rounded=0;whiteSpace=wrap;html=1;" parent="1" vertex="1">
          <mxGeometry x="670" y="910" width="120" height="60" as="geometry" />
        </mxCell>
        <mxCell id="cfl4rptSdVp8EchHqUEe-27" style="edgeStyle=orthogonalEdgeStyle;rounded=0;orthogonalLoop=1;jettySize=auto;html=1;exitX=0.5;exitY=1;exitDx=0;exitDy=0;" parent="1" source="cfl4rptSdVp8EchHqUEe-24" target="cfl4rptSdVp8EchHqUEe-26" edge="1">
          <mxGeometry relative="1" as="geometry" />
        </mxCell>
        <mxCell id="cfl4rptSdVp8EchHqUEe-24" value="add card" style="rounded=0;whiteSpace=wrap;html=1;" parent="1" vertex="1">
          <mxGeometry x="670" y="1020" width="120" height="60" as="geometry" />
        </mxCell>
        <mxCell id="I_9H3etlu-zK3Efqb3r3-5" style="edgeStyle=orthogonalEdgeStyle;rounded=0;orthogonalLoop=1;jettySize=auto;html=1;exitX=0.5;exitY=1;exitDx=0;exitDy=0;entryX=0.5;entryY=0;entryDx=0;entryDy=0;" edge="1" parent="1" source="cfl4rptSdVp8EchHqUEe-26" target="I_9H3etlu-zK3Efqb3r3-4">
          <mxGeometry relative="1" as="geometry" />
        </mxCell>
        <mxCell id="cfl4rptSdVp8EchHqUEe-26" value="received shipment count" style="rounded=0;whiteSpace=wrap;html=1;" parent="1" vertex="1">
          <mxGeometry x="670" y="1130" width="120" height="60" as="geometry" />
        </mxCell>
        <mxCell id="cfl4rptSdVp8EchHqUEe-30" style="edgeStyle=orthogonalEdgeStyle;rounded=0;orthogonalLoop=1;jettySize=auto;html=1;exitX=0.5;exitY=1;exitDx=0;exitDy=0;entryX=0.5;entryY=0;entryDx=0;entryDy=0;" parent="1" source="cfl4rptSdVp8EchHqUEe-28" target="cfl4rptSdVp8EchHqUEe-29" edge="1">
          <mxGeometry relative="1" as="geometry" />
        </mxCell>
        <mxCell id="cfl4rptSdVp8EchHqUEe-28" value="&amp;nbsp;create Shipment&lt;br&gt;" style="rounded=0;whiteSpace=wrap;html=1;" parent="1" vertex="1">
          <mxGeometry x="1490" y="300" width="120" height="60" as="geometry" />
        </mxCell>
        <mxCell id="cfl4rptSdVp8EchHqUEe-32" style="edgeStyle=orthogonalEdgeStyle;rounded=0;orthogonalLoop=1;jettySize=auto;html=1;exitX=0.5;exitY=1;exitDx=0;exitDy=0;" parent="1" source="cfl4rptSdVp8EchHqUEe-29" target="cfl4rptSdVp8EchHqUEe-31" edge="1">
          <mxGeometry relative="1" as="geometry" />
        </mxCell>
        <mxCell id="cfl4rptSdVp8EchHqUEe-29" value="add sender detaill and verfiy" style="rounded=0;whiteSpace=wrap;html=1;" parent="1" vertex="1">
          <mxGeometry x="1490" y="410" width="120" height="60" as="geometry" />
        </mxCell>
        <mxCell id="cfl4rptSdVp8EchHqUEe-35" style="edgeStyle=orthogonalEdgeStyle;rounded=0;orthogonalLoop=1;jettySize=auto;html=1;exitX=0.5;exitY=1;exitDx=0;exitDy=0;entryX=0.5;entryY=0;entryDx=0;entryDy=0;" parent="1" source="cfl4rptSdVp8EchHqUEe-31" target="cfl4rptSdVp8EchHqUEe-34" edge="1">
          <mxGeometry relative="1" as="geometry" />
        </mxCell>
        <mxCell id="cfl4rptSdVp8EchHqUEe-31" value="add reciever details and verify" style="rounded=0;whiteSpace=wrap;html=1;" parent="1" vertex="1">
          <mxGeometry x="1490" y="510" width="120" height="60" as="geometry" />
        </mxCell>
        <mxCell id="cfl4rptSdVp8EchHqUEe-38" style="edgeStyle=orthogonalEdgeStyle;rounded=0;orthogonalLoop=1;jettySize=auto;html=1;exitX=0.5;exitY=1;exitDx=0;exitDy=0;" parent="1" source="cfl4rptSdVp8EchHqUEe-34" target="cfl4rptSdVp8EchHqUEe-37" edge="1">
          <mxGeometry relative="1" as="geometry" />
        </mxCell>
        <mxCell id="cfl4rptSdVp8EchHqUEe-34" value="add package details" style="rounded=0;whiteSpace=wrap;html=1;" parent="1" vertex="1">
          <mxGeometry x="1490" y="610" width="120" height="60" as="geometry" />
        </mxCell>
        <mxCell id="cfl4rptSdVp8EchHqUEe-41" style="edgeStyle=orthogonalEdgeStyle;rounded=0;orthogonalLoop=1;jettySize=auto;html=1;exitX=0.5;exitY=1;exitDx=0;exitDy=0;entryX=0.5;entryY=0;entryDx=0;entryDy=0;" parent="1" source="cfl4rptSdVp8EchHqUEe-37" target="cfl4rptSdVp8EchHqUEe-40" edge="1">
          <mxGeometry relative="1" as="geometry" />
        </mxCell>
        <mxCell id="cfl4rptSdVp8EchHqUEe-37" value="add Shipment date and select service" style="rounded=0;whiteSpace=wrap;html=1;" parent="1" vertex="1">
          <mxGeometry x="1490" y="700" width="120" height="60" as="geometry" />
        </mxCell>
        <mxCell id="cfl4rptSdVp8EchHqUEe-43" style="edgeStyle=orthogonalEdgeStyle;rounded=0;orthogonalLoop=1;jettySize=auto;html=1;entryX=0;entryY=0.5;entryDx=0;entryDy=0;" parent="1" source="cfl4rptSdVp8EchHqUEe-40" target="cfl4rptSdVp8EchHqUEe-37" edge="1">
          <mxGeometry relative="1" as="geometry" />
        </mxCell>
        <mxCell id="cfl4rptSdVp8EchHqUEe-47" style="edgeStyle=orthogonalEdgeStyle;rounded=0;orthogonalLoop=1;jettySize=auto;html=1;" parent="1" source="cfl4rptSdVp8EchHqUEe-40" target="cfl4rptSdVp8EchHqUEe-45" edge="1">
          <mxGeometry relative="1" as="geometry" />
        </mxCell>
        <mxCell id="cfl4rptSdVp8EchHqUEe-40" value="add additional Detail" style="rhombus;whiteSpace=wrap;html=1;" parent="1" vertex="1">
          <mxGeometry x="1480" y="820" width="145" height="70" as="geometry" />
        </mxCell>
        <mxCell id="I_9H3etlu-zK3Efqb3r3-1" style="edgeStyle=orthogonalEdgeStyle;rounded=0;orthogonalLoop=1;jettySize=auto;html=1;entryX=0.5;entryY=0;entryDx=0;entryDy=0;" edge="1" parent="1" source="cfl4rptSdVp8EchHqUEe-45" target="cfl4rptSdVp8EchHqUEe-48">
          <mxGeometry relative="1" as="geometry" />
        </mxCell>
        <mxCell id="cfl4rptSdVp8EchHqUEe-45" value="ship now&lt;br&gt;" style="rounded=0;whiteSpace=wrap;html=1;" parent="1" vertex="1">
          <mxGeometry x="1490" y="930" width="120" height="40" as="geometry" />
        </mxCell>
        <mxCell id="I_9H3etlu-zK3Efqb3r3-3" style="edgeStyle=orthogonalEdgeStyle;rounded=0;orthogonalLoop=1;jettySize=auto;html=1;" edge="1" parent="1" source="cfl4rptSdVp8EchHqUEe-48" target="I_9H3etlu-zK3Efqb3r3-2">
          <mxGeometry relative="1" as="geometry" />
        </mxCell>
        <mxCell id="cfl4rptSdVp8EchHqUEe-48" value="add card and complete payment&lt;br&gt;" style="rounded=0;whiteSpace=wrap;html=1;" parent="1" vertex="1">
          <mxGeometry x="1490" y="1020" width="120" height="60" as="geometry" />
        </mxCell>
        <mxCell id="I_9H3etlu-zK3Efqb3r3-2" value="generate invoice" style="rounded=0;whiteSpace=wrap;html=1;" vertex="1" parent="1">
          <mxGeometry x="1500" y="1130" width="120" height="60" as="geometry" />
        </mxCell>
        <mxCell id="I_9H3etlu-zK3Efqb3r3-4" value="generate invoice" style="rounded=0;whiteSpace=wrap;html=1;" vertex="1" parent="1">
          <mxGeometry x="660" y="1240" width="120" height="60" as="geometry" />
        </mxCell>
        <mxCell id="I_9H3etlu-zK3Efqb3r3-6" style="edgeStyle=orthogonalEdgeStyle;rounded=0;orthogonalLoop=1;jettySize=auto;html=1;exitX=0.5;exitY=1;exitDx=0;exitDy=0;entryX=0.5;entryY=0;entryDx=0;entryDy=0;" edge="1" parent="1" source="I_9H3etlu-zK3Efqb3r3-7" target="I_9H3etlu-zK3Efqb3r3-9">
          <mxGeometry relative="1" as="geometry" />
        </mxCell>
        <mxCell id="I_9H3etlu-zK3Efqb3r3-7" value="add Address" style="rounded=0;whiteSpace=wrap;html=1;" vertex="1" parent="1">
          <mxGeometry x="1230" y="300" width="120" height="60" as="geometry" />
        </mxCell>
        <mxCell id="I_9H3etlu-zK3Efqb3r3-33" style="edgeStyle=orthogonalEdgeStyle;rounded=0;orthogonalLoop=1;jettySize=auto;html=1;entryX=0.5;entryY=0;entryDx=0;entryDy=0;" edge="1" parent="1" source="I_9H3etlu-zK3Efqb3r3-9" target="I_9H3etlu-zK3Efqb3r3-32">
          <mxGeometry relative="1" as="geometry" />
        </mxCell>
        <mxCell id="I_9H3etlu-zK3Efqb3r3-9" value="verify now" style="rounded=0;whiteSpace=wrap;html=1;" vertex="1" parent="1">
          <mxGeometry x="1230" y="410" width="120" height="60" as="geometry" />
        </mxCell>
        <mxCell id="I_9H3etlu-zK3Efqb3r3-25" style="edgeStyle=orthogonalEdgeStyle;rounded=0;orthogonalLoop=1;jettySize=auto;html=1;" edge="1" parent="1" source="I_9H3etlu-zK3Efqb3r3-23" target="I_9H3etlu-zK3Efqb3r3-24">
          <mxGeometry relative="1" as="geometry" />
        </mxCell>
        <mxCell id="I_9H3etlu-zK3Efqb3r3-23" value="Add Package" style="whiteSpace=wrap;html=1;" vertex="1" parent="1">
          <mxGeometry x="990" y="290" width="120" height="60" as="geometry" />
        </mxCell>
        <mxCell id="I_9H3etlu-zK3Efqb3r3-31" style="edgeStyle=orthogonalEdgeStyle;rounded=0;orthogonalLoop=1;jettySize=auto;html=1;exitX=0.5;exitY=1;exitDx=0;exitDy=0;" edge="1" parent="1" source="I_9H3etlu-zK3Efqb3r3-24">
          <mxGeometry relative="1" as="geometry">
            <mxPoint x="1049.571428571429" y="480" as="targetPoint" />
          </mxGeometry>
        </mxCell>
        <mxCell id="I_9H3etlu-zK3Efqb3r3-24" value="add package Details" style="whiteSpace=wrap;html=1;" vertex="1" parent="1">
          <mxGeometry x="990" y="400" width="120" height="50" as="geometry" />
        </mxCell>
        <mxCell id="I_9H3etlu-zK3Efqb3r3-28" style="edgeStyle=orthogonalEdgeStyle;rounded=0;orthogonalLoop=1;jettySize=auto;html=1;entryX=0.5;entryY=0;entryDx=0;entryDy=0;" edge="1" parent="1" source="I_9H3etlu-zK3Efqb3r3-26">
          <mxGeometry relative="1" as="geometry">
            <mxPoint x="140" y="690" as="targetPoint" />
          </mxGeometry>
        </mxCell>
        <mxCell id="I_9H3etlu-zK3Efqb3r3-26" value="Admin upload/assign&amp;nbsp;&lt;br&gt;&amp;nbsp;slip to virtual mailbox" style="whiteSpace=wrap;html=1;" vertex="1" parent="1">
          <mxGeometry x="80" y="550" width="120" height="90" as="geometry" />
        </mxCell>
        <mxCell id="I_9H3etlu-zK3Efqb3r3-29" value="open inbox" style="rhombus;whiteSpace=wrap;html=1;" vertex="1" parent="1">
          <mxGeometry x="100" y="690" width="80" height="80" as="geometry" />
        </mxCell>
        <mxCell id="I_9H3etlu-zK3Efqb3r3-30" value="save&lt;br&gt;" style="whiteSpace=wrap;html=1;" vertex="1" parent="1">
          <mxGeometry x="990" y="490" width="120" height="60" as="geometry" />
        </mxCell>
        <mxCell id="I_9H3etlu-zK3Efqb3r3-32" value="save&lt;br&gt;" style="whiteSpace=wrap;html=1;" vertex="1" parent="1">
          <mxGeometry x="1230" y="500" width="120" height="60" as="geometry" />
        </mxCell>
        <mxCell id="I_9H3etlu-zK3Efqb3r3-35" value="choose carrier preferences" style="rounded=0;whiteSpace=wrap;html=1;" vertex="1" parent="1">
          <mxGeometry x="200" y="460" width="120" height="60" as="geometry" />
        </mxCell>
      </root>
    </mxGraphModel>
  </diagram>
</mxfile>
